<?xml version="1.0" encoding="UTF-8"?>
<svg id="Layer_2" data-name="Layer 2" xmlns="http://www.w3.org/2000/svg" xmlns:xlink="http://www.w3.org/1999/xlink" viewBox="0 0 686.98 292.79">
  <defs>
    <style>
      .cls-1 {
        fill: #24273a;
      }

      .cls-1, .cls-2, .cls-3, .cls-4, .cls-5 {
        stroke-width: 0px;
      }

      .cls-2 {
        fill: none;
      }

      .cls-6 {
        clip-path: url(#clippath-1);
      }

      .cls-3 {
        fill: #f5a97f;
      }

      .cls-7 {
        clip-path: url(#clippath);
      }

      .cls-4 {
        fill: #363a4f;
      }

      .cls-5 {
        fill: #fff;
      }
    </style>
    <clipPath id="clippath">
      <rect class="cls-2" width="686.98" height="292.79"/>
    </clipPath>
    <clipPath id="clippath-1">
      <path class="cls-2" d="M50.91,0h584.8c13.5,0,26.45,5.36,35.99,14.91,9.55,9.55,14.91,22.49,14.91,35.99v190.97c0,13.5-5.36,26.45-14.91,35.99-9.55,9.55-22.49,14.91-35.99,14.91H50.91c-13.51,0-26.45-5.36-36-14.91-9.55-9.55-14.91-22.49-14.91-35.99V50.91c0-13.5,5.36-26.45,14.91-35.99C24.46,5.36,37.41,0,50.91,0Z"/>
    </clipPath>
  </defs>
  <g id="Layer_1-2" data-name="Layer 1">
    <g class="cls-7">
      <g class="cls-6">
        <path class="cls-4" d="M0,0h686.23v292.79H0V0Z"/>
      </g>
    </g>
    <path class="cls-5" d="M65.57,184.67c-7.95,0-14.68-1.36-20.21-4.08-5.53-2.72-10.24-6.24-14.13-10.56l12.96-13.08c6.14,6.91,13.7,10.35,22.69,10.35,4.83,0,8.42-.99,10.75-2.98,2.33-1.98,3.5-4.61,3.5-7.9,0-2.5-.7-4.59-2.08-6.27-1.38-1.69-4.18-2.84-8.42-3.46l-8.94-1.17c-9.6-1.21-16.62-4.09-21.06-8.67-4.45-4.58-6.67-10.67-6.67-18.27,0-4.05.78-7.76,2.33-11.13,1.55-3.38,3.78-6.27,6.67-8.69,2.89-2.43,6.43-4.31,10.63-5.65,4.19-1.33,8.96-2,14.31-2,6.83,0,12.84,1.08,18.02,3.23,5.18,2.16,9.63,5.31,13.33,9.46l-13.08,13.21c-2.16-2.5-4.77-4.55-7.83-6.15-3.07-1.59-6.94-2.4-11.6-2.4-4.41,0-7.69.78-9.85,2.33-2.16,1.56-3.23,3.72-3.23,6.48,0,3.11.84,5.36,2.52,6.75,1.69,1.38,4.44,2.36,8.23,2.96l8.94,1.44c9.33,1.46,16.24,4.33,20.73,8.6,4.5,4.28,6.75,10.35,6.75,18.21,0,4.32-.78,8.29-2.33,11.92-1.56,3.63-3.83,6.74-6.81,9.33-2.97,2.58-6.66,4.59-11.06,6.02-4.41,1.43-9.42,2.15-15.04,2.15Z"/>
    <path class="cls-5" d="M166.37,183.1c-3.46,0-6.33-1.07-8.63-3.23-2.28-2.17-3.72-5.06-4.33-8.69h-.77c-1.04,4.41-3.33,7.75-6.88,10.04s-7.91,3.44-13.08,3.44c-6.82,0-12.05-1.81-15.69-5.44-3.63-3.64-5.44-8.44-5.44-14.4,0-7.17,2.61-12.5,7.83-16,5.23-3.5,12.34-5.25,21.33-5.25h10.75v-4.27c0-3.28-.87-5.89-2.6-7.83-1.72-1.94-4.61-2.92-8.67-2.92-3.81,0-6.83.82-9.08,2.46-2.24,1.64-4.09,3.49-5.56,5.56l-11.4-10.1c2.76-4.05,6.23-7.23,10.42-9.52,4.19-2.29,9.88-3.44,17.04-3.44,9.68,0,16.94,2.12,21.77,6.35,4.83,4.24,7.25,10.41,7.25,18.52v29.81h6.35v14.9h-10.63ZM139.81,171.31c3.19,0,5.94-.69,8.23-2.06,2.29-1.39,3.44-3.64,3.44-6.75v-8.02h-9.33c-7.52,0-11.27,2.55-11.27,7.65v1.94c0,2.5.78,4.33,2.33,5.5,1.55,1.17,3.76,1.75,6.6,1.75Z"/>
    <path class="cls-5" d="M189.82,183.1v-68.02h19.19v11.54h.77c1.21-3.64,3.28-6.73,6.21-9.27,2.94-2.55,6.96-3.83,12.06-3.83,4.67,0,8.64,1.17,11.92,3.5,3.28,2.33,5.65,5.75,7.13,10.25h.4c.59-1.9,1.52-3.69,2.77-5.38,1.25-1.69,2.78-3.15,4.6-4.35,1.82-1.21,3.84-2.18,6.08-2.92,2.25-.73,4.67-1.1,7.27-1.1,6.55,0,11.58,2.33,15.08,7s5.25,11.32,5.25,19.96v42.63h-19.17v-41.06c0-8.64-3.11-12.96-9.33-12.96-2.85,0-5.44.82-7.77,2.46-2.33,1.64-3.5,4.15-3.5,7.52v44.04h-19.19v-41.06c0-8.64-3.1-12.96-9.31-12.96-1.39,0-2.76.2-4.1.58-1.33.39-2.54,1.02-3.63,1.88-1.07.86-1.93,1.92-2.58,3.17-.64,1.25-.96,2.7-.96,4.35v44.04h-19.19Z"/>
    <path class="cls-5" d="M333.26,184.67c-5.02,0-9.49-.82-13.42-2.46-3.93-1.65-7.26-4.03-9.98-7.13-2.72-3.11-4.82-6.86-6.29-11.27-1.46-4.42-2.19-9.34-2.19-14.79s.73-10.34,2.19-14.75c1.47-4.42,3.57-8.15,6.29-11.21,2.72-3.07,6.05-5.42,9.98-7.06,3.93-1.65,8.4-2.48,13.42-2.48s9.46.83,13.4,2.48c3.93,1.64,7.26,3.99,9.98,7.06,2.72,3.06,4.82,6.79,6.29,11.21,1.47,4.41,2.21,9.32,2.21,14.75s-.74,10.38-2.21,14.79c-1.47,4.41-3.57,8.16-6.29,11.27-2.72,3.1-6.05,5.47-9.98,7.13-3.93,1.64-8.4,2.46-13.4,2.46ZM333.26,169.5c3.79,0,6.72-1.17,8.79-3.5,2.08-2.33,3.13-5.66,3.13-9.98v-13.85c0-4.32-1.04-7.65-3.13-9.98-2.07-2.33-5-3.5-8.79-3.5s-6.74,1.17-8.81,3.5c-2.07,2.33-3.1,5.66-3.1,9.98v13.85c0,4.32,1.03,7.65,3.1,9.98,2.07,2.33,5.01,3.5,8.81,3.5Z"/>
    <path class="cls-3" d="M399.27,29.14h246.54c3.73,0,7.31,1.48,9.95,4.12,2.64,2.64,4.13,6.22,4.13,9.95v206.37c0,3.73-1.48,7.31-4.13,9.95-2.64,2.64-6.22,4.13-9.95,4.13h-246.54c-7.77,0-14.07-6.3-14.07-14.07V43.21c0-7.77,6.3-14.07,14.07-14.07Z"/>
    <path class="cls-1" d="M414.86,87.23h19.19v39.4h.77c1.21-3.54,3.32-6.61,6.33-9.21,3.03-2.59,7.22-3.9,12.58-3.9,7,0,12.29,2.33,15.88,7s5.38,11.32,5.38,19.96v42.63h-19.19v-41.06c0-4.42-.7-7.68-2.08-9.79-1.38-2.11-3.83-3.17-7.38-3.17-1.56,0-3.07.2-4.54.58-1.46.39-2.77,1.02-3.94,1.88-1.17.86-2.1,1.92-2.79,3.17-.68,1.25-1.02,2.7-1.02,4.35v44.04h-19.19v-95.88Z"/>
    <path class="cls-1" d="M532.25,171.71h-.65c-.61,1.72-1.42,3.36-2.42,4.92-.99,1.56-2.26,2.94-3.81,4.15-1.56,1.21-3.39,2.16-5.5,2.85-2.11.69-4.55,1.04-7.31,1.04-7,0-12.29-2.31-15.88-6.94s-5.38-11.26-5.38-19.9v-42.75h19.17v41.06c0,4.16.73,7.35,2.21,9.6,1.47,2.24,3.98,3.35,7.52,3.35,1.46,0,2.92-.21,4.4-.65,1.47-.43,2.76-1.05,3.88-1.88,1.13-.82,2.03-1.83,2.73-3.04.69-1.21,1.04-2.63,1.04-4.27v-44.19h19.17v68.02h-19.17v-11.4Z"/>
    <path class="cls-1" d="M569.3,87.23h19.19v39.25h.65c.94-3.79,3.11-6.9,6.52-9.31,3.42-2.43,7.32-3.65,11.73-3.65,8.64,0,15.16,3.03,19.56,9.08,4.42,6.04,6.63,14.85,6.63,26.42s-2.21,20.43-6.63,26.52c-4.41,6.08-10.93,9.13-19.56,9.13-2.24,0-4.35-.33-6.33-.98-1.99-.65-3.78-1.56-5.38-2.73-1.6-1.17-2.96-2.55-4.08-4.15-1.13-1.59-1.95-3.3-2.46-5.1h-.65v11.4h-19.19v-95.88ZM601.05,169.1c3.63,0,6.63-1.27,9-3.81,2.38-2.55,3.56-5.99,3.56-10.31v-11.77c0-4.32-1.19-7.75-3.56-10.29-2.38-2.55-5.38-3.83-9-3.83s-6.63.89-9,2.67c-2.38,1.77-3.56,4.2-3.56,7.31v20.06c0,3.11,1.19,5.56,3.56,7.33,2.38,1.77,5.38,2.65,9,2.65Z"/>
  </g>
</svg>